<svg xmlns="http://www.w3.org/2000/svg" xmlns:xlink="http://www.w3.org/1999/xlink" width="500" zoomAndPan="magnify" viewBox="0 0 375 374.999991" height="500" preserveAspectRatio="xMidYMid meet" version="1.0"><defs><clipPath id="201d5c102c"><path d="M 9 6 L 331 6 L 331 369.597656 L 9 369.597656 Z M 9 6 " clip-rule="nonzero"/></clipPath><clipPath id="0455294669"><path d="M 223 28 L 366.496094 28 L 366.496094 172 L 223 172 Z M 223 28 " clip-rule="nonzero"/></clipPath></defs><g clip-path="url(#201d5c102c)"><path fill="#00ff66" d="M 229.679688 34.730469 L 216.757812 56.003906 C 204.671875 49.078125 192.714844 41.933594 180.421875 35.425781 C 178 34.140625 173.355469 34.011719 171.316406 35.507812 C 131.769531 64.445312 87.953125 79.5625 38.652344 77.574219 C 37.847656 77.542969 37.035156 77.738281 35.878906 77.863281 C 35.550781 78.742188 34.878906 79.703125 34.863281 80.671875 C 33.945312 137.867188 39.851562 193.835938 66.101562 245.835938 C 88.34375 289.902344 122.589844 321.148438 168.21875 340.039062 C 173.6875 342.300781 178.351562 342.292969 183.816406 339.941406 C 245.4375 313.433594 284.230469 266.984375 303.644531 203.46875 C 304.363281 201.125 305.074219 198.777344 305.890625 196.089844 C 309.863281 195.769531 313.933594 195.519531 317.988281 195.09375 C 321.746094 194.703125 325.488281 194.125 330.203125 193.503906 C 324.964844 215.605469 317.394531 235.882812 307.492188 255.316406 C 280.203125 308.886719 237.878906 345.921875 182.476562 368.300781 C 178.679688 369.832031 173.21875 369.769531 169.375 368.277344 C 95.707031 339.683594 50.429688 285.203125 27.546875 210.890625 C 12.324219 161.460938 8.75 110.515625 9.546875 59.117188 C 9.558594 58.339844 9.859375 57.566406 10.089844 56.507812 C 23.171875 55.820312 36.203125 55.363281 49.203125 54.417969 C 93.222656 51.230469 132.671875 35.578125 167.984375 9.515625 C 173.878906 5.164062 177.675781 5.171875 183.691406 8.816406 C 198.601562 17.84375 214.050781 26 229.679688 34.730469 Z M 229.679688 34.730469 " fill-opacity="1" fill-rule="nonzero"/></g><path fill="#fdd661" d="M 204.121094 176.402344 C 203.308594 176.347656 202.5 176.316406 201.507812 176.265625 C 201.457031 175.328125 201.390625 174.519531 201.367188 173.710938 C 201.140625 165.699219 201.226562 157.664062 200.613281 149.683594 C 199.894531 140.285156 190.660156 131.421875 181.28125 130.957031 C 174.191406 130.601562 167.074219 130.863281 159.972656 130.773438 C 149.695312 130.648438 138.503906 140.324219 138.523438 152.925781 C 138.53125 157.308594 138.394531 161.695312 138.355469 166.082031 C 138.328125 169.457031 138.351562 172.828125 138.351562 176.1875 C 136.214844 176.398438 134.628906 176.476562 133.074219 176.726562 C 129.039062 177.378906 124.40625 181.984375 124.382812 185.792969 C 124.277344 202.347656 124.269531 218.902344 124.355469 235.460938 C 124.386719 240.085938 129.460938 244.78125 134.109375 244.789062 C 157.777344 244.828125 181.445312 244.824219 205.113281 244.777344 C 210.410156 244.765625 215.15625 240.230469 215.207031 234.882812 C 215.359375 219.160156 215.378906 203.433594 215.265625 187.703125 C 215.214844 181.152344 210.707031 176.863281 204.121094 176.402344 Z M 176.648438 207.640625 C 174.996094 209.328125 174.5 211.027344 174.535156 213.261719 C 174.609375 217.71875 174.546875 222.179688 174.347656 226.640625 C 174.230469 229.375 173.570312 229.824219 170.800781 229.882812 C 165.421875 229.992188 165.148438 229.746094 165.054688 224.414062 C 165.019531 222.449219 165.050781 220.480469 165.050781 218.515625 L 164.996094 218.515625 C 164.996094 217.230469 164.960938 215.941406 165.003906 214.660156 C 165.09375 211.871094 164.910156 209.53125 162.566406 207.1875 C 158.816406 203.4375 159.609375 197.558594 163.589844 194.054688 C 167.292969 190.785156 172.984375 190.996094 176.578125 194.527344 C 180.097656 197.984375 180.269531 203.933594 176.648438 207.640625 Z M 185.867188 176.226562 L 153.238281 176.226562 C 153.527344 167.921875 153.625 159.78125 154.171875 151.671875 C 154.414062 148.152344 156.875 146.09375 160.480469 146.03125 C 166.972656 145.917969 173.476562 146.058594 179.96875 146.292969 C 182.808594 146.398438 184.800781 148.253906 185.261719 151.042969 C 185.667969 153.492188 185.804688 156 185.84375 158.488281 C 185.921875 164.300781 185.867188 170.117188 185.867188 176.226562 Z M 185.867188 176.226562 " fill-opacity="1" fill-rule="nonzero"/><g clip-path="url(#0455294669)"><path fill="#fdd661" d="M 294.679688 28.28125 C 255.148438 28.28125 223.105469 60.328125 223.105469 99.855469 C 223.105469 139.382812 255.148438 171.425781 294.679688 171.425781 C 334.207031 171.425781 366.25 139.382812 366.25 99.855469 C 366.25 60.328125 334.207031 28.28125 294.679688 28.28125 Z M 335.808594 81.792969 C 335.253906 82.535156 334.585938 83.195312 333.929688 83.851562 C 319.414062 98.378906 304.890625 112.90625 290.359375 127.425781 C 285.253906 132.53125 281.027344 132.542969 275.957031 127.480469 C 268.769531 120.300781 261.589844 113.121094 254.414062 105.941406 C 252.027344 103.546875 251.175781 100.6875 252.113281 97.425781 C 253.03125 94.238281 255.261719 92.308594 258.464844 91.632812 C 261.632812 90.960938 264.222656 92.175781 266.4375 94.394531 C 271.363281 99.335938 276.296875 104.265625 281.246094 109.1875 C 281.839844 109.78125 282.460938 110.347656 283.476562 111.3125 C 284.050781 110.523438 284.472656 109.757812 285.066406 109.164062 C 297.546875 96.652344 310.035156 84.148438 322.535156 71.652344 C 324.285156 69.898438 326.1875 68.542969 328.769531 68.449219 C 332.273438 68.328125 334.976562 69.730469 336.589844 72.851562 C 338.199219 75.953125 337.90625 78.988281 335.808594 81.792969 Z M 335.808594 81.792969 " fill-opacity="1" fill-rule="nonzero"/></g></svg>